<svg xmlns="http://www.w3.org/2000/svg" version="1.1" xmlns:xlink="http://www.w3.org/1999/xlink" xmlns:svgjs="http://svgjs.dev/svgjs" width="2000" height="616" viewBox="0 0 2000 616"><g transform="matrix(1,0,0,1,-1.2121212121212466,0.3440840967967915)"><svg viewBox="0 0 396 122" data-background-color="#ffffff" preserveAspectRatio="xMidYMid meet" height="616" width="2000" xmlns="http://www.w3.org/2000/svg" xmlns:xlink="http://www.w3.org/1999/xlink"><g id="tight-bounds" transform="matrix(1,0,0,1,0.2400000000000091,-0.06814652566430368)"><svg viewBox="0 0 395.52 122.13629305132861" height="122.13629305132861" width="395.52"><g><svg viewBox="0 0 650.9082436830613 200.99999999999997" height="122.13629305132861" width="395.52"><g><rect width="5.492501034686471" height="200.99999999999997" x="247.03881801338446" y="0" fill="#9bcc71" opacity="1" stroke-width="0" stroke="transparent" fill-opacity="1" class="rect-o-0" data-fill-palette-color="primary" rx="1%" id="o-0" data-palette-color="#010c80"></rect></g><g transform="matrix(1,0,0,1,266.9095940079832,0.4999999999999858)"><svg viewBox="0 0 383.99864967507807 200" height="200" width="383.99864967507807"><g id="textblocktransform"><svg viewBox="0 0 383.99864967507807 200" height="200" width="383.99864967507807" id="textblock"><g><svg viewBox="0 0 383.99864967507807 200" height="200" width="383.99864967507807"><g transform="matrix(1,0,0,1,0,0)"><svg width="383.99864967507807" viewBox="-0.5099999904632568 -31.049999237060547 201.6800079345703 100.48001098632812" height="200" data-palette-color="#010c80"><svg></svg><svg></svg><svg></svg><g class="wordmark-text-0" data-fill-palette-color="primary" id="text-0"><path xmlns="http://www.w3.org/2000/svg" d="M-0.51-28.52l3.37 1.03 8.61 15.19v9.35l-3.66 1.14-0.24 1.81h12.35l0.25-1.95-3.98-0.83v-10.14l8.42-14.67 3.05-0.93 0.25-1.85h-10.87l-0.24 1.85 4.46 1.03-6.44 11.86-6.76-11.96 3.85-0.93 0.3-1.85h-12.41zM45.07 0.66c3.253 0 6.077-0.717 8.47-2.15 2.393-1.433 4.217-3.35 5.47-5.75 1.253-2.4 1.88-5.023 1.88-7.87v0c0-2.88-0.57-5.537-1.71-7.97-1.14-2.433-2.78-4.37-4.92-5.81-2.14-1.44-4.633-2.16-7.48-2.16v0c-3.193 0-5.977 0.67-8.35 2.01-2.38 1.34-4.207 3.217-5.48 5.63-1.28 2.407-1.92 5.173-1.92 8.3v0c0 2.927 0.587 5.59 1.76 7.99 1.173 2.4 2.823 4.297 4.95 5.69 2.133 1.393 4.577 2.09 7.33 2.09zM45.61-28.71c2.213 0 4.06 0.717 5.54 2.15 1.48 1.433 2.57 3.273 3.27 5.52 0.7 2.24 1.05 4.59 1.05 7.05v0c0 3.5-0.683 6.387-2.05 8.66-1.367 2.267-3.743 3.4-7.13 3.4v0c-2.233 0-4.087-0.687-5.56-2.06-1.467-1.373-2.547-3.17-3.24-5.39-0.693-2.213-1.04-4.587-1.04-7.12v0c0-8.14 3.053-12.21 9.16-12.21zM66.85-27.49v16.04c0 4.64 1.127 7.817 3.38 9.53 2.253 1.72 5.12 2.58 8.6 2.58v0c4.187 0 7.263-1.09 9.23-3.27 1.973-2.18 2.973-5.5 3-9.96v0l0.13-15.02 4.05-0.93 0.27-1.85h-11.67l-0.25 1.85 4.47 1.03-0.07 15.72c-0.02 3.113-0.713 5.427-2.08 6.94-1.367 1.513-3.32 2.27-5.86 2.27v0c-2.62 0-4.69-0.81-6.21-2.43-1.52-1.62-2.28-4.107-2.28-7.46v0-15.14l4.12-0.93 0.22-1.85h-13.23l-0.32 1.85zM109.84 0l0.24-2.03-4.59-1.05v-10.03h4.25l3.88 6.93c1.173 2.1 2.463 3.74 3.87 4.92 1.407 1.18 3.013 1.77 4.82 1.77v0c1.027 0 2.003-0.163 2.93-0.49v0l0.37-1.66-0.81-0.24c-0.973-0.293-1.81-0.697-2.51-1.21-0.7-0.513-1.36-1.143-1.98-1.89-0.62-0.747-1.507-1.927-2.66-3.54v0l-4.39-6.08v-0.02c1.48-0.527 2.743-1.243 3.79-2.15 1.053-0.913 1.853-1.917 2.4-3.01 0.54-1.087 0.81-2.167 0.81-3.24v0c0-2.707-1.07-4.643-3.21-5.81-2.14-1.173-5.153-1.76-9.04-1.76v0c-1.627 0-3.327 0.097-5.1 0.29-1.78 0.2-3.79 0.477-6.03 0.83v0l-0.25 1.88 4.18 0.73v23.91l-4.08 1.14-0.27 1.81zM105.49-28.42c0.147-0.013 0.493-0.037 1.04-0.07 0.547-0.033 1.177-0.05 1.89-0.05v0c1.42 0 2.637 0.293 3.65 0.88 1.02 0.587 1.797 1.4 2.33 2.44 0.54 1.04 0.81 2.227 0.81 3.56v0c0 1.613-0.473 2.957-1.42 4.03-0.94 1.073-2.093 1.84-3.46 2.3v0h-4.84z" fill="#000000" fill-rule="nonzero" stroke="none" stroke-width="1" stroke-linecap="butt" stroke-linejoin="miter" stroke-miterlimit="10" stroke-dasharray="" stroke-dashoffset="0" font-family="none" font-weight="none" font-size="none" text-anchor="none" style="mix-blend-mode: normal" data-fill-palette-color="primary" opacity="1"></path><path xmlns="http://www.w3.org/2000/svg" d="M1.22 6.19l4.44 1.03v24.54l-4.07 1.14-0.2 1.81h24.78l0.73-7.64-2.02-0.32-2.39 5.62h-12.09v-11.89h6.69l0.83 4.27 2.08-0.32 0.83-9.5-2.32 0.35-1.03 2.93h-7.08v-11.63h11.5l1 5.25 2.12 0.32 0.76-7.81h-24.29zM27.66 34.71h24.17l0.9-8.08-2.07-0.32-3.2 6.06h-10.79v-25.03l4.17-1.15 0.25-1.85h-13.43l-0.32 1.85 4.59 1.25v24.32l-4.05 1.14zM53.47 6.19l4.44 1.03v24.54l-4.08 1.14-0.19 1.81h24.78l0.73-7.64-2.03-0.32-2.39 5.62h-12.08v-11.89h6.69l0.83 4.27 2.07-0.32 0.83-9.5-2.32 0.35-1.02 2.93h-7.08v-11.63h11.5l1 5.25 2.12 0.32 0.76-7.81h-24.29zM94.56 35.47c2.487 0 4.67-0.213 6.55-0.64 1.88-0.42 3.61-1.103 5.19-2.05v0-8.79l3.03-1 0.29-1.83h-13.58l-0.29 2.03 5.76 0.92v7.69c-0.453 0.267-1.05 0.503-1.79 0.71-0.74 0.213-1.543 0.32-2.41 0.32v0c-2.487 0-4.643-0.643-6.47-1.93-1.82-1.287-3.21-2.987-4.17-5.1-0.96-2.113-1.44-4.41-1.44-6.89v0c0-2.86 0.437-5.227 1.31-7.1 0.867-1.873 2.037-3.25 3.51-4.13 1.473-0.873 3.13-1.31 4.97-1.31v0c1.82 0 3.377 0.28 4.67 0.84 1.3 0.56 2.307 1.207 3.02 1.94v0l0.88 4.66 2.12 0.37 0.59-7.86c-1.187-0.753-2.62-1.337-4.3-1.75-1.673-0.413-3.513-0.62-5.52-0.62v0c-2.827 0-5.507 0.673-8.04 2.02-2.533 1.353-4.577 3.293-6.13 5.82-1.553 2.52-2.33 5.457-2.33 8.81v0c0 2.847 0.547 5.39 1.64 7.63 1.087 2.233 2.72 4 4.9 5.3 2.18 1.293 4.86 1.94 8.04 1.94zM109.01 34.71h11.42l0.27-1.95-4.54-1.08 2.47-7.52h10.23l2.66 7.4-4.18 1.34-0.29 1.81h12.57l0.22-1.95-3.34-1.08-9.52-27.93-3.69 0.76-10.42 27.05-3.64 1.34zM119.56 21.67l4.54-12.2 4.05 12.2zM142.07 6.19l4.44 1.25v24.32l-4.08 1.14-0.19 1.81h11.59l0.27-1.95-4.47-0.83v-20.68l16.19 24.19 3.74-0.75v-27.57l4.07-0.93 0.32-1.85h-11.6l-0.29 1.85 4.52 1.03v20.8l-15.7-23.68h-8.55zM174.05 4.34l0.19 7.86 2.22 0.32 1.3-5.94h7.2v25.18l-4.13 1.14-0.17 1.81h13.16l0.35-1.95-4.52-0.83v-25.35h7.44l0.93 5.64 2.32 0.37 0.83-8.25z" fill="#000000" fill-rule="nonzero" stroke="none" stroke-width="1" stroke-linecap="butt" stroke-linejoin="miter" stroke-miterlimit="10" stroke-dasharray="" stroke-dashoffset="0" font-family="none" font-weight="none" font-size="none" text-anchor="none" style="mix-blend-mode: normal" data-fill-palette-color="primary" opacity="1"></path><path xmlns="http://www.w3.org/2000/svg" d="M15.7 69.43l0.34-2.03-5.79-0.95v-25.49c0.167-0.013 0.523-0.04 1.07-0.08 0.54-0.04 1.013-0.06 1.42-0.06v0c2.62 0 4.563 0.72 5.83 2.16 1.26 1.44 1.89 3.29 1.89 5.55v0c0 2.18-0.643 3.83-1.93 4.95-1.287 1.113-3.24 1.703-5.86 1.77v0l-1.29 0.02 0.44 2.03 0.7 0.02c0.72 0.033 1.3 0.05 1.74 0.05v0c1.987 0 3.84-0.41 5.56-1.23 1.727-0.827 3.107-1.98 4.14-3.46 1.033-1.48 1.55-3.157 1.55-5.03v0c0-3.287-1.123-5.583-3.37-6.89-2.247-1.313-5.207-1.97-8.88-1.97v0c-1.84 0-3.69 0.097-5.55 0.29-1.853 0.2-3.877 0.46-6.07 0.78v0l-0.25 1.88 4.18 0.74v24l-4.08 1.14-0.27 1.81zM25.85 40.91l4.45 1.03v24.54l-4.08 1.14-0.19 1.81h24.78l0.73-7.64-2.03-0.32-2.39 5.62h-12.09v-11.89h6.69l0.83 4.27 2.08-0.32 0.83-9.5-2.32 0.35-1.03 2.93h-7.08v-11.63h11.5l1 5.25 2.13 0.32 0.76-7.81h-24.3zM51.44 39.06l0.2 7.86 2.22 0.32 1.29-5.94h7.2v25.18l-4.12 1.14-0.17 1.81h13.16l0.34-1.95-4.52-0.83v-25.35h7.45l0.93 5.64 2.31 0.37 0.83-8.25z" fill="#000000" fill-rule="nonzero" stroke="none" stroke-width="1" stroke-linecap="butt" stroke-linejoin="miter" stroke-miterlimit="10" stroke-dasharray="" stroke-dashoffset="0" font-family="none" font-weight="none" font-size="none" text-anchor="none" style="mix-blend-mode: normal" data-fill-palette-color="primary" opacity="1"></path></g></svg></g></svg></g></svg></g></svg></g><g transform="matrix(1,0,0,1,0,0.4999999999999858)"><svg viewBox="0 0 232.66054305347222 200" height="200" width="232.66054305347222"><g><svg xmlns="http://www.w3.org/2000/svg" xmlns:xlink="http://www.w3.org/1999/xlink" version="1.1" x="0" y="0" viewBox="3.999317169189453 10.00149154663086 92.36262512207031 79.39689636230469" enable-background="new 0 0 100 100" xml:space="preserve" height="200" width="232.66054305347222" class="icon-icon-0" data-fill-palette-color="accent" id="icon-0"><path d="M29.841 65.861" fill="#000000" data-fill-palette-color="accent"></path><path d="M90.518 81.604c-0.055-0.988-1.885-1.83-2.553-2.603-0.783-0.909-1.287-2.241-1.713-3.348-0.223-0.58-0.123-0.567-0.572-1.762-0.711-0.367-2.082-0.105-2.84-0.2-1.131-0.141-2.443-0.253-3.539-0.572-0.119 1.285 0.926 1.916 1.443 2.917 0.484 0.934 0.566 2.026 1.148 2.95 0.848 1.341 1.994 2.964 3.516 3.585 1.168 0.479 3.162 0.952 4.309 0.182C90.316 82.349 90.537 81.967 90.518 81.604z" fill="#000000" data-fill-palette-color="accent"></path><path d="M36.192 73.978c0.048-0.507 0.005-1.168 0.188-1.681 0.313-0.883 0.442-1.869 0.72-2.771 0.127-0.414 1.713-4.617 1.538-4.722 3.375 1.997 5.539 1.985 9.553 1.999 6.819 0.022 11.587-0.92 12.651-1.17 3.965 4 7.582 6.316 8.791 8.577 0.301 0.995 0.455 1.53 0.404 2.477-0.094 0.876-2.879 2.503-6.492 2.491-0.156-0.001-3.014 0.474-2.352 2.119 1.85 0.975 5.262 0.015 6.539-0.206 1.777-0.306 3.963-0.864 5.449-1.92 0.633-0.451 1-0.985 1.76-1.27 2.896-1.296 0.529-3.077-0.586-4.779-0.715-1.091-1.186-2.282-1.422-3.53-0.127-0.682-2.324-2.568-2.836-3.365-1.051-1.635-2.635-3.984-1.846-6.015-0.543 1.782 2.066 4.294 3.145 5.471 2.016 2.198 4.537 4.979 7.336 6.161 3.117 1.318 6.869 0.446 9.928 1.305 1.814 0.51 4.078 1.907 4.246 3.22 0.221 1.754-0.051 3.361-0.131 5.077-0.387 1.338-1.684 0.694-2.008 1.062-0.768 0.648-1.637 2.192-1.086 2.21 3.418 0.105 3.48-0.14 4.449-0.683 0.186-0.104 0.359-0.438 0.623-0.772 0.17-0.218 0.713-0.07 0.867-0.346 0.287-0.51 0.229-1.408 0.277-1.961 0.063-0.682 0.285-1.917 0.395-3.457 0.182-2.456-0.053-3.839-0.016-4.637 0.152-3.301-2.363-2.906-4.943-3.897-1.563-0.599-3.148-1.782-4.182-4.378-1.449-3.645-0.291-8.466-1.623-11.98-1.891-4.987-6.986-8.229-12.863-10.126-3.791-1.223-7.998-1.716-12.09-2.324-2.174-0.323-7.09-0.146-9.268-0.437-3.49-0.468-4.381-1.057-8.228-1.836-2.649-0.537-3.439-0.883-5.551-2.468-2.477-1.858-3.979-2.228-5.524-5.172-1.242-2.364-2.135-5.195-3.081-7.512-0.092-0.226-0.188-0.451-0.284-0.676-1.272-2.927-2.904-5.712-3.76-8.805-0.313-1.132 0.759-4.353-1.256-2.375-0.961 0.943-1.162 2.475-1.875 3.578-0.71-0.714-1.026-1.771-1.279-2.717-0.123-0.458-0.17-0.982-0.365-1.415-0.479-1.068-1.233 0.835-1.406 1.317-0.328 0.912-0.529 1.908-0.58 2.876-0.064 1.224-0.123 2.404 0.179 3.603-1.056 0.391-1.652 0.958-2.47 1.506-0.838 0.56-1.816 0.817-2.521 1.59-0.894 0.978-0.186 1.895-0.852 2.852-0.778 1.115-3.138 1.875-4.36 2.457-0.825 0.393-3.976 1.211-4.091 2.354-0.09 0.895 1.496 1.98 1.958 2.536 1.373 1.653 3.634 2.736 5.781 2.392 3.575-0.574 3.344-0.233 4.092 3.002 0.893 3.869 2.991 7.412 3.163 11.299 0.043 0.971 0.467 1.624 0.653 2.547 0.675 3.361 2.449 6.672 4.754 9.191 2.397 2.619 4.248 2.637 5.477 6.071 0.926 2.585 0.871 6.213 0.806 8.931-0.022 0.952 0.054 1.907 0.07 2.858 0.01 0.583 0.011 1.166-0.02 1.749-0.029 0.566-0.203 1.077-0.249 1.633-0.48 0.049-0.945 0.229-1.452 0.27-0.72 0.058-1.419 0.314-1.741 1.007-0.156 0.335-0.191 0.649 0.188 0.811 0.219 0.094 2.373 0.021 2.382-0.084-0.066 0.711-0.481 1.676-1.037 2.136-0.641 0.53-1.565 0.479-2.313 0.765-0.977 0.376-3.054 2.353-1.573 3.229 0.598 0.353 1.995 0.097 2.618-0.044 1.57-0.355 2.695-1.199 4.015-2.078 0.62-0.411 1.151-0.946 1.532-1.588 0.234-0.392 0.519-0.908 0.663-1.338 0.126-0.377-0.085-0.708 0.404-0.869 0.706-0.232 0.785-0.575 1.073-1.239 0.167-0.386 0.255-0.767 0.337-1.175 0.199-0.985 0.19-2 0.405-2.981L36.192 73.978zM16.447 24.151c0.118 0.105 0.188 0.231 0.112 0.391-0.461 0.968-3.901 0.048-2.431-1.617 0.797-0.902 1.306 0.348 1.84 0.889C16.068 23.915 16.297 24.017 16.447 24.151z" fill="#000000" data-fill-palette-color="accent"></path><path d="M35.94 74.612" fill="#000000" data-fill-palette-color="accent"></path></svg></g></svg></g></svg></g><defs></defs></svg><rect width="395.52" height="122.13629305132861" fill="none" stroke="none" visibility="hidden"></rect></g></svg></g></svg>